<svg width="724" height="296" viewBox="0 0 724 296" fill="none" xmlns="http://www.w3.org/2000/svg">
<path d="M324.292 261.885C326.077 260.466 327.983 257.029 329.173 252.644C333.695 233.336 340.84 205.264 346.673 181.691H347.268C354.528 212.016 361.909 244.594 364.768 255.489C365.363 257.857 366.08 259.753 367.864 261.414C369.175 262.719 370.838 263.311 372.386 263.432V263.903H350.12V263.432C352.743 263.196 357.502 262.248 357.86 259.282C357.982 258.455 357.86 256.915 357.623 256.081L352.506 233.1H334.884C333.215 239.853 331.552 247.076 330.835 250.869C330.362 253.593 330.004 256.081 330.004 257.742C330.004 262.006 334.884 263.19 338.338 263.432V263.903H319.648V263.432C320.96 263.304 322.866 263.069 324.292 261.885ZM352.277 232.273L343.942 196.265L335.013 232.273H352.277Z" fill="#C7AC92"/>
<path d="M383.22 262.474C385.005 261.404 385.843 259.864 385.843 257.262V183.578H382.274C380.848 183.578 377.867 183.699 376.319 184.056C373.46 184.769 369.411 198.388 368.343 203.6H367.984V182.986H410.61V203.6H410.252C409.299 198.388 405.25 184.769 402.397 184.056C400.727 183.699 398.233 183.578 396.442 183.578H392.751V257.255C392.751 259.864 393.468 261.398 395.367 262.346C396.679 262.938 399.058 263.294 400.606 263.415V263.886H377.988V263.415C379.415 263.301 382.152 263.066 383.22 262.474Z" fill="#C7AC92"/>
<path d="M419.183 262.474C420.967 261.526 421.684 259.985 421.684 257.383V189.86C421.684 187.25 420.852 185.475 419.061 184.526C417.872 183.935 416.087 183.464 414.539 183.343V182.986H450.73V201.938H450.371C448.587 194.594 445.011 184.997 441.564 184.049C439.894 183.571 437.156 183.571 435.014 183.571H428.707V221.832H433.587C438.231 221.832 439.779 219.579 440.611 218.16C441.679 216.149 442.99 209.753 443.348 205.96H443.821V238.652H443.348C442.99 235.216 441.564 227.757 440.611 226.217C439.657 224.556 438.109 222.424 433.587 222.424H428.707V255.002C428.707 261.99 429.538 263.294 436.21 263.294C440.732 263.294 444.781 263.173 446.451 260.57C448.83 257.134 452.879 245.169 453.832 241.262H454.305L453.231 263.886H414.539V263.415C416.087 263.301 417.986 263.066 419.183 262.474Z" fill="#C7AC92"/>
<path d="M462.768 262.475C464.552 261.527 465.269 259.986 465.269 257.384V189.982C465.269 187.372 464.437 185.483 462.646 184.534C461.456 183.942 459.672 183.472 458.124 183.351V182.994H479.552V183.351C478.24 183.472 476.456 183.821 474.908 184.413C473.002 185.24 472.285 186.902 472.285 189.504V254.895C472.285 262.118 472.758 263.302 479.667 263.302C483.594 263.302 487.406 262.831 488.954 260.457C491.333 256.906 495.619 244.35 496.809 240.321H497.167L495.856 263.894H458.117V263.423C459.672 263.302 461.578 263.067 462.768 262.475Z" fill="#C7AC92"/>
<path d="M504.446 262.474C506.231 261.526 506.947 259.985 506.947 257.383V189.86C506.947 187.25 506.116 185.475 504.331 184.526C503.142 183.935 501.235 183.464 499.688 183.343V182.986H521.237V183.343C519.925 183.464 518.141 183.699 516.593 184.405C514.687 185.118 513.97 186.773 513.97 189.382V257.376C513.97 259.985 514.687 261.526 516.593 262.467C517.783 263.059 519.689 263.294 521.237 263.415V263.886H499.688V263.415C501.235 263.301 503.257 263.066 504.446 262.474Z" fill="#C7AC92"/>
<path d="M531.355 262.474C533.139 261.526 533.856 259.985 533.856 257.383V189.86C533.856 187.25 533.024 185.475 531.233 184.526C530.043 183.935 528.259 183.464 526.711 183.343V182.986H562.901V201.938H562.543C560.759 194.594 557.183 184.997 553.735 184.049C552.066 183.571 549.328 183.571 547.185 183.571H540.879V221.832H545.759C550.403 221.832 551.951 219.579 552.782 218.16C553.85 216.149 555.162 209.753 555.52 205.96H555.993V238.652H555.52C555.162 235.216 553.735 227.757 552.782 226.217C551.829 224.556 550.281 222.424 545.759 222.424H540.879V255.002C540.879 261.99 541.71 263.294 548.382 263.294C552.904 263.294 556.953 263.173 558.623 260.57C561.002 257.134 565.051 245.169 566.004 241.262H566.477L565.402 263.886H526.711V263.415C528.259 263.301 530.165 263.066 531.355 262.474Z" fill="#C7AC92"/>
<path d="M600.639 244.941C599.923 236.292 598.855 222.787 590.284 222.787H584.45V257.497C584.45 260.1 585.167 261.64 587.073 262.588C588.384 263.18 590.29 263.301 591.838 263.415V263.886H570.289V263.415C571.837 263.294 573.858 263.059 574.933 262.467C576.717 261.519 577.434 259.979 577.434 257.376V189.739C577.434 187.129 576.717 185.239 574.811 184.405C573.736 183.814 571.837 183.457 570.289 183.343V182.986H591.96C600.653 182.986 609.697 188.32 609.697 201.226C609.697 214.132 600.531 220.299 593.508 222.074V222.431C599.815 222.908 604.938 226.224 606.365 234.516C607.554 241.033 607.676 247.664 608.744 253.468C609.575 258.089 610.887 260.221 612.908 260.221C614.929 260.221 617.072 257.611 617.072 248.613V246.124H617.788V248.613C617.788 259.75 615.767 265.198 609.812 265.198C604.208 265.198 601.707 259.864 600.639 244.941ZM601.592 203.008C601.592 188.911 597.307 183.578 590.399 183.578H584.443V222.074H589.209C595.874 222.081 601.592 216.277 601.592 203.008Z" fill="#C7AC92"/>
<path d="M283.253 149.854C280.705 147.486 279.684 144.776 278.833 141.393C274.75 125.824 264.205 79.284 253.829 35.959H252.978C244.643 69.633 234.436 109.743 227.974 137.331C226.271 143.592 223.553 148.502 220.998 150.533C218.957 152.228 216.233 152.564 214.367 152.732V153.411H241.074V152.732C236.14 152.396 229.171 150.701 229.171 144.608C229.171 142.24 229.677 138.683 230.36 134.795L249.071 56.7808L268.633 142.247C268.971 143.431 269.139 145.63 268.971 146.814C268.457 151.044 261.657 152.396 257.912 152.739V153.418H289.722V152.739C287.505 152.557 285.126 151.716 283.253 149.854Z" fill="#C7AC92"/>
<path d="M422.98 149.854C420.432 147.486 419.411 144.776 418.559 141.393C414.476 125.824 403.932 79.284 393.556 35.959H392.704C384.37 69.633 374.163 109.743 367.701 137.331C365.997 143.592 363.28 148.502 360.725 150.533C358.683 152.228 355.959 152.564 354.094 152.732V153.411H380.801V152.732C375.866 152.396 368.897 150.701 368.897 144.608C368.897 142.24 369.404 138.683 370.087 134.795L388.797 56.7808L408.359 142.247C408.697 143.431 408.866 145.63 408.697 146.814C408.183 151.044 401.383 152.396 397.639 152.739V153.418H429.449V152.739C427.232 152.557 424.852 151.716 422.98 149.854Z" fill="#C7AC92"/>
<path d="M297.701 151.376C300.594 150.024 301.446 147.65 301.446 143.931V47.6366C301.446 43.9107 300.256 41.3752 297.701 40.0234C295.322 38.8397 293.112 38.5035 290.726 38.3286V37.8242H319.981C336.819 37.8242 354.508 50.0106 354.508 96.3823C354.508 135.813 340.05 153.414 318.446 153.414H290.719V152.734C293.112 152.734 296.174 152.055 297.701 151.376ZM343.118 96.2074C343.118 62.1903 336.487 38.6649 317.601 38.6649H311.477V141.557C311.815 149.681 313.181 152.559 319.812 152.559C338.184 152.559 343.118 128.53 343.118 96.2074Z" fill="#C7AC92"/>
<path d="M518.977 151.379C521.525 149.859 522.721 147.653 522.721 143.934V38.6747H517.618C515.577 38.6747 511.325 38.8428 509.114 39.3539C505.032 40.3694 499.252 59.8328 497.718 67.2778H497.211V37.834H558.101V67.2778H557.587C556.228 59.8328 550.442 40.3694 546.359 39.3539C543.98 38.8495 540.404 38.6747 537.856 38.6747H532.583V143.941C532.583 147.666 533.604 149.866 536.328 151.217C538.201 152.065 541.601 152.569 543.811 152.737V153.417H511.494V152.737C513.528 152.563 517.442 152.226 518.977 151.379Z" fill="#C7AC92"/>
<path d="M570.51 151.376C573.058 150.024 574.079 147.825 574.079 144.099V47.6366C574.079 43.9107 572.889 41.3752 570.334 40.0234C568.631 39.176 565.913 38.5035 563.703 38.3286V37.8242H594.493V38.3286C592.62 38.4968 590.072 38.833 587.862 39.8486C585.138 40.8641 584.117 43.2315 584.117 46.9573V144.099C584.117 147.825 585.138 150.024 587.862 151.376C589.565 152.223 592.282 152.56 594.493 152.728V153.407H563.703V152.728C565.913 152.56 568.807 152.223 570.51 151.376Z" fill="#C7AC92"/>
<path d="M606.737 49.3344C606.055 45.9515 605.21 42.9049 602.655 40.5376C600.782 39.1858 598.065 38.5065 596.023 38.3384V37.834H626.13V38.3384C621.879 38.8428 616.606 39.8583 616.268 44.0953C616.268 45.4471 616.437 46.6308 616.775 48.8367L634.803 130.913L649.944 62.5431C651.303 55.0981 652.323 49.5093 652.323 47.1419C652.323 41.5599 646.713 38.8495 640.589 38.3451V37.8407H664.91V38.3451C662.699 38.5132 660.489 39.5288 658.616 41.2236C656.068 43.7591 654.534 48.6686 653.175 53.9144C647.389 79.6391 640.927 109.762 635.992 130.745L631.227 154.775H630.206L606.737 49.3344Z" fill="#C7AC92"/>
<path d="M672.919 151.376C675.467 150.024 676.488 147.825 676.488 144.099V47.6366C676.488 43.9107 675.298 41.3752 672.743 40.0234C671.04 39.176 668.492 38.5035 666.281 38.3286V37.8242H717.992V64.9007H717.485C714.936 54.4091 709.833 40.7027 704.898 39.3442C702.519 38.6649 698.605 38.6649 695.543 38.6649H686.526V93.3289H693.502C700.133 93.3289 702.343 90.1142 703.54 88.0831C705.067 85.2046 706.94 76.0648 707.453 70.6509H708.136V117.359H707.453C706.946 112.449 704.905 101.789 703.54 99.5903C702.181 97.2229 699.971 94.1763 693.502 94.1763H686.526V140.716C686.526 150.703 687.716 152.559 697.24 152.559C703.702 152.559 709.488 152.391 711.867 148.666C715.267 143.756 721.054 126.667 722.412 121.078H723.095L721.567 153.4H666.288V152.721C668.498 152.559 671.222 152.223 672.919 151.376Z" fill="#C7AC92"/>
<path d="M459.067 57.9108C459.791 57.931 460.298 57.6015 460.608 56.9693C460.69 56.8079 460.757 56.6397 460.805 56.4649C460.913 56.0882 460.967 55.7049 460.98 55.3148C460.987 55.0324 460.98 54.7499 460.953 54.4674C460.926 54.185 460.879 53.9025 460.811 53.62C460.764 53.425 460.71 53.2367 460.649 53.0416C460.433 52.4296 460.142 51.8647 459.723 51.3738C458.736 50.2237 457.499 49.6789 455.971 49.8874C455.262 49.9883 454.674 50.3111 454.234 50.8761C453.565 51.7504 453.41 52.7457 453.579 53.8016C453.734 54.7432 454.228 55.5099 454.944 56.1353C455.836 56.9088 456.877 57.393 457.999 57.736C458.344 57.8369 458.696 57.9041 459.067 57.9108Z" fill="#C7AC92"/>
<path d="M463.984 78.2127C463.998 78.3808 464.011 78.5422 464.025 78.7104C464.086 79.6586 464.349 80.5464 464.883 81.3333C465.864 82.7792 467.209 83.4988 468.986 83.2702C469.906 83.1559 470.595 82.6716 471.035 81.8511C471.447 81.0844 471.528 80.2639 471.379 79.4233C471.217 78.5086 470.724 77.7688 470.021 77.1904C468.892 76.2556 467.58 75.6839 466.134 75.4553C465.39 75.3342 464.714 75.6436 464.37 76.3632C464.268 76.5717 464.174 76.8004 464.133 77.029C464.059 77.3989 464.032 77.7688 463.984 78.1791C463.984 78.1858 463.984 78.1925 463.984 78.1992C463.984 78.1992 463.984 78.206 463.984 78.2127Z" fill="#C7AC92"/>
<path d="M468.185 69.3172C468.191 69.3172 468.191 69.3239 468.198 69.3239C468.982 69.7812 469.793 70.1578 470.665 70.3798C470.956 70.4538 471.253 70.5076 471.551 70.5412C472.139 70.6085 472.72 70.5883 473.302 70.4538C473.633 70.3798 473.944 70.2587 474.221 70.0637C474.66 69.7476 474.89 69.3373 474.89 68.7859C474.89 68.3689 474.762 67.9923 474.539 67.6493C474.106 66.97 473.18 66.3109 472.375 66.0957C472.132 66.3176 471.889 66.5463 471.632 66.7548C471.375 66.9633 471.105 67.1651 470.821 67.3466C470.55 67.5215 470.273 67.6829 469.983 67.8174C469.678 67.9586 469.367 68.0797 469.05 68.1806C468.732 68.2815 468.401 68.3353 468.076 68.4294C467.759 68.5236 467.414 68.4631 467.062 68.6043C467.434 68.8733 467.793 69.0818 468.178 69.3104C468.178 69.3104 468.185 69.3104 468.185 69.3172Z" fill="#C7AC92"/>
<path d="M460.322 97.9022C473.929 97.9022 488.895 87.4106 488.895 64.9007C488.895 48.1477 477.329 37.8242 463.209 37.8242H431.398V38.3286C433.609 38.4968 435.988 39.0079 438.03 39.8486C440.754 41.0322 441.774 43.7426 441.774 47.4617V144.092C441.774 147.818 440.754 150.017 438.205 151.369C436.678 152.216 433.785 152.553 431.574 152.721V153.4H462.533V152.721C459.984 152.553 457.429 152.385 455.557 151.537C452.833 150.185 451.812 147.979 451.812 144.26V97.8887H460.322V97.9022ZM450.393 83.8327C449.676 82.5414 449.25 81.1492 449.081 79.6831C448.966 78.6675 448.993 77.6587 449.075 76.6432C449.176 75.3519 449.399 74.0808 449.757 72.8299C450.19 71.2898 450.819 69.8438 451.751 68.5391C451.792 68.4853 451.826 68.4248 451.873 68.3373C451.772 68.2768 451.684 68.2163 451.582 68.1759C451.089 67.9473 450.622 67.6648 450.203 67.3151C449.088 66.387 448.514 65.2033 448.493 63.7506C448.48 62.3249 448.953 61.1075 449.994 60.1256C450.555 59.6011 451.211 59.2379 451.934 58.9958C452.556 58.7806 453.198 58.6595 453.86 58.6326C454.577 58.6057 455.287 58.6259 455.996 58.7066C456.219 58.7335 456.442 58.72 456.665 58.7066C456.72 58.7066 456.794 58.6393 456.821 58.5855C456.868 58.5048 456.821 58.4174 456.747 58.3703C456.645 58.3031 456.537 58.2358 456.422 58.182C456.132 58.0542 455.834 57.9332 455.537 57.8054C453.941 57.1127 452.508 56.1913 451.298 54.9404C449.953 53.5482 449.081 51.9072 448.784 49.9972C448.486 48.1074 448.662 46.2511 449.446 44.4824C449.933 43.3794 450.629 42.4378 451.589 41.6913C452.731 40.8103 454.036 40.3731 455.476 40.3597C457.186 40.3395 458.72 40.8439 460.086 41.8729C461.1 42.6396 461.85 43.6148 462.391 44.7514C462.877 45.7669 463.148 46.8362 463.29 47.9527C463.411 48.9278 463.411 49.8963 463.337 50.8715C463.222 52.4721 462.871 54.0324 462.303 55.5389C462.147 55.9424 461.992 56.3392 461.836 56.7428C461.762 56.9378 461.688 57.1328 461.634 57.3346C461.512 57.8256 461.674 58.1753 462.12 58.4107C462.472 58.599 462.857 58.6729 463.242 58.7335C464.351 58.8882 465.473 58.9352 466.588 58.8882C467.961 58.8276 469.313 58.6191 470.61 58.1416C471.82 57.691 472.909 57.0588 473.787 56.1038C474.227 55.6263 474.578 55.095 474.781 54.4763C474.916 54.0728 474.95 53.6625 474.855 53.2455C474.788 52.9227 474.653 52.6403 474.396 52.4183C473.956 52.0417 473.186 51.9946 472.719 52.4856C472.55 52.6672 472.415 52.8824 472.266 53.0841C472.05 53.3935 471.854 53.7163 471.624 54.0055C470.901 54.9067 469.941 55.3371 468.785 55.391C466.717 55.4918 464.763 54.0929 464.209 51.9005C463.891 50.6361 463.972 49.3852 464.452 48.1746C465.054 46.6547 466.203 45.7602 467.805 45.4575C469.651 45.1146 471.259 45.6324 472.665 46.8362C473.422 47.4886 474.031 48.2688 474.511 49.1431C475.234 50.4344 475.68 51.8131 475.862 53.2792C475.93 53.8307 475.984 54.3889 475.991 54.9404C475.998 55.5255 475.971 56.1106 475.917 56.689C475.835 57.4624 475.741 58.2358 475.599 59.0025C475.308 60.583 474.835 62.1029 474.105 63.5421C473.848 64.0533 473.558 64.5442 473.226 65.0083C473.165 65.0957 473.105 65.1899 473.037 65.2975C473.192 65.3714 473.334 65.432 473.47 65.4992C474.092 65.7951 474.666 66.1583 475.16 66.6425C475.964 67.4429 476.417 68.3979 476.478 69.5345C476.525 70.402 476.39 71.2225 475.991 72.0027C475.457 73.0519 474.598 73.7647 473.53 74.2288C472.753 74.5651 471.935 74.7399 471.09 74.7601C470.435 74.7736 469.779 74.787 469.123 74.6929C468.927 74.666 468.731 74.6727 468.535 74.6659C468.481 74.6659 468.42 74.666 468.366 74.6727C468.265 74.6794 468.17 74.7063 468.143 74.8273C468.123 74.9484 468.204 75.0022 468.292 75.056C468.386 75.1098 468.488 75.1636 468.589 75.2107C468.819 75.3116 469.049 75.4125 469.285 75.5066C470.536 76.011 471.699 76.6768 472.746 77.5242C473.862 78.4322 474.788 79.5015 475.416 80.8062C476.011 82.0303 476.295 83.3215 476.302 84.6733C476.309 86.1462 476.038 87.5518 475.356 88.8633C474.619 90.2823 473.551 91.3651 472.07 92.0107C471.53 92.2461 470.969 92.4143 470.347 92.4815C469.786 92.5891 469.252 92.569 468.718 92.5286C467.994 92.4681 467.285 92.3067 466.602 92.0377C464.662 91.2575 463.303 89.8923 462.452 88.0024C462.019 87.0474 461.776 86.0319 461.668 84.9894C461.546 83.8058 461.586 82.6288 461.735 81.4519C461.945 79.8378 462.431 78.3044 463.067 76.8181C463.134 76.6499 463.209 76.4818 463.27 76.3137C463.31 76.2128 463.344 76.1052 463.364 75.9908C463.459 75.5066 463.303 75.1771 462.857 74.9619C462.681 74.8744 462.492 74.8139 462.303 74.7668C461.681 74.6054 461.032 74.5449 460.397 74.5247C459.613 74.4978 458.829 74.4844 458.051 74.518C456.463 74.5987 454.922 74.9081 453.475 75.5941C452.583 76.0177 451.778 76.5625 451.116 77.3023C450.683 77.7865 450.339 78.3178 450.17 78.95C450.061 79.367 450.068 79.7773 450.203 80.1808C450.528 81.203 451.832 81.2837 452.333 80.6448C452.495 80.4363 452.657 80.2278 452.799 80.0059C453.096 79.5486 453.414 79.1114 453.84 78.755C454.408 78.2708 455.07 78.0152 455.814 77.9143C456.686 77.8 457.517 77.921 458.301 78.2977C459.687 78.9635 460.532 80.0732 460.843 81.5729C461.046 82.5548 460.985 83.5435 460.681 84.4985C460.153 86.1529 459.018 87.1685 457.314 87.5249C455.55 87.8881 453.962 87.4778 452.549 86.3816C451.623 85.6822 450.933 84.8146 450.393 83.8327Z" fill="#C7AC92"/>
<path d="M452.587 67.5116C452.682 67.4241 452.783 67.3367 452.878 67.2425C453.351 66.7919 453.878 66.3952 454.453 66.0723C455.5 65.4805 456.643 65.1846 457.839 65.077C457.9 65.0702 457.981 65.1106 458.008 64.9896C457.657 64.7542 457.305 64.5255 456.94 64.3036C456.92 64.2901 456.9 64.2767 456.879 64.2699C456.541 64.0682 456.19 63.8799 455.825 63.705C455.791 63.6848 455.757 63.6646 455.724 63.6512C455.555 63.5772 455.413 63.51 455.271 63.4562C454.23 63.0459 453.162 62.824 452.04 62.9921C451.607 63.0594 451.195 63.1737 450.83 63.4225C450.35 63.7521 450.079 64.1959 450.086 64.7878C450.093 65.2182 450.221 65.6083 450.458 65.9647C450.945 66.7045 451.641 67.1686 452.438 67.5048C452.479 67.5048 452.519 67.5049 452.587 67.5116Z" fill="#C7AC92"/>
<path d="M139.281 210.493C133.268 205.674 126.601 201.924 119.415 199.056C118.076 198.525 116.748 197.97 115.427 197.397C114.837 197.146 114.26 196.86 113.712 196.539C113.23 196.258 112.736 195.914 112.867 195.248C112.998 194.582 113.557 194.447 114.135 194.389C114.456 194.36 114.778 194.337 115.099 194.348C116.224 194.389 117.361 194.36 118.469 194.518C122.225 195.043 125.999 194.997 129.774 194.909C134.637 194.792 139.334 193.787 143.799 191.895C149.966 189.284 154.86 185.242 157.943 179.284C160.218 174.891 160.997 170.218 160.724 165.317C160.366 158.868 157.783 153.465 153.151 148.932C150.324 146.17 147.02 144.119 143.442 142.449C142.65 142.081 141.852 141.718 140.959 141.315C141.37 140.696 141.698 140.165 142.061 139.668C143.966 137.028 145.633 134.248 147.127 131.362C151.342 123.219 154.056 114.58 155.717 105.631C156.521 101.297 157.086 96.916 157.545 92.5293C157.89 89.2406 158.039 85.917 157.991 82.6167C157.943 79.4741 157.646 76.3256 157.253 73.2006C156.217 64.9001 153.628 57.0728 149.484 49.7596C146.686 44.8296 143.221 40.4019 138.864 36.7044C130.797 29.8643 121.534 26.9495 110.95 28.8888C101.741 30.5769 95.1564 35.6647 91.6917 44.2747C88.9295 51.1323 88.4532 58.2353 90.2868 65.3908C93.4776 77.8151 104.669 85.7476 116.57 85.1751C123.207 84.8539 128.714 82.4239 132.881 77.3186C134.232 75.6656 135.34 73.8197 136.59 72.0849C137.417 70.9283 138.197 69.7133 139.173 68.6853C141.84 65.8873 146.275 66.1677 148.805 68.2939C150.264 69.5206 151.044 71.1503 151.437 72.9669C151.955 75.3326 151.77 77.6516 150.996 79.953C149.818 83.4636 147.788 86.466 145.275 89.1647C140.233 94.5854 133.97 98.1661 127.029 100.707C119.582 103.429 111.825 104.597 103.937 104.942C97.5078 105.222 91.0904 104.959 84.7087 104.066C82.4823 103.756 80.2737 103.312 78.2675 102.249C75.6958 100.894 74.7552 98.9079 75.4636 96.1392C75.7553 95.0001 76.2018 93.8903 76.6245 92.7863C77.4995 90.5023 78.4223 88.2301 79.3033 85.9462C82.5894 77.4179 84.5837 68.5918 85.2624 59.5087C85.6672 54.012 85.6791 48.492 84.9885 42.9837C84.1968 36.681 82.6133 30.6061 79.8332 24.8642C76.7197 18.4271 72.4097 12.8954 66.5995 8.56122C58.7831 2.73749 49.9487 -0.118878 40.1261 0.00378833C31.8276 0.108931 24.3505 2.57393 17.7783 7.5682C12.2598 11.7622 8.25339 17.1303 5.46139 23.3688C0.978726 33.3982 -0.0333115 43.895 1.66927 54.6195C3.38971 65.4492 8.3903 74.7543 16.1174 82.6459C23.0646 89.7371 31.3156 94.9592 40.4655 98.8729C42.1561 99.5972 43.8706 100.269 45.5553 101.011C46.2102 101.297 46.8293 101.677 47.4187 102.08C47.8354 102.36 48.1092 102.827 47.8473 103.301C47.6806 103.604 47.2758 103.955 46.9543 103.972C45.6744 104.042 44.3766 104.107 43.1086 103.966C39.0308 103.511 34.9529 103.371 30.8513 103.528C27.0472 103.68 23.3563 104.369 19.7726 105.573C15.6292 106.969 11.8431 109.007 8.64033 111.986C2.62773 117.565 -0.092835 124.469 0.00241417 132.536C0.0976634 140.772 3.39566 147.478 9.81903 152.741C12.2419 154.727 14.9089 156.31 17.7604 157.618C18.32 157.87 18.832 158.214 19.4273 158.547C19.1356 159.02 18.9511 159.365 18.7189 159.68C13.3373 167.081 9.73569 175.294 7.24136 184.003C5.21731 191.071 3.93145 198.268 3.33614 205.593C2.8718 211.34 2.70511 217.071 3.37186 222.813C4.34221 231.131 6.78892 238.987 10.9204 246.318C14.0636 251.89 18.0105 256.82 23.1718 260.752C31.3096 266.943 40.4476 269.286 50.5678 267.23C60.3607 265.238 66.8912 259.49 69.9213 250.097C71.6715 244.671 72.0287 239.092 70.8559 233.514C69.076 225.032 64.2302 218.741 56.2471 214.956C51.7406 212.818 46.9603 212.141 41.9418 212.783C37.6735 213.326 33.8873 214.787 30.6131 217.538C28.2021 219.565 26.3686 222.036 24.6481 224.618C23.8147 225.868 22.9098 227.071 21.9693 228.245C19.0642 231.855 11.599 231.393 9.72378 225.611C8.97369 223.297 8.91417 220.967 9.54519 218.624C10.5096 215.032 12.4979 212.006 14.9863 209.273C18.7903 205.096 23.398 201.989 28.5296 199.599C36.852 195.721 45.7042 193.974 54.8302 193.513C59.3189 193.291 63.8313 193.379 68.3199 193.536C72.0049 193.665 75.6958 193.98 79.2855 194.903C80.363 195.178 81.4464 195.528 82.4525 196.007C85.0064 197.228 85.8993 199.074 85.3695 201.831C85.2505 202.444 85.0481 203.052 84.8278 203.642C84.4647 204.6 84.0718 205.552 83.6669 206.492C80.0356 214.944 77.2198 223.625 76.0291 232.76C75.1659 239.431 74.9457 246.096 75.6422 252.796C76.2613 258.725 77.6841 264.443 80.1606 269.87C85.0361 280.548 92.8704 288.311 104.009 292.715C107.908 294.257 111.974 295.174 116.153 295.507C119.189 295.747 122.255 295.84 125.493 295.244C129.083 294.847 132.31 293.918 135.411 292.575C143.924 288.895 150.074 282.773 154.288 274.73C158.188 267.288 159.759 259.326 159.717 250.991C159.676 243.298 158.057 235.991 154.639 229.063C151.002 221.709 145.704 215.64 139.281 210.493ZM53.717 140.042C46.8472 140.626 40.3107 142.308 34.2743 145.673C30.9763 147.513 27.9819 149.739 25.2435 152.309C24.672 152.846 24.0826 153.366 23.5528 153.845C23.1718 153.804 22.9158 153.827 22.7074 153.746C18.0998 151.859 14.0993 149.195 11.3133 145.025C9.96786 143.009 9.19992 140.813 9.17611 138.366C9.14039 134.995 10.6703 132.478 13.4445 130.62C15.5399 129.218 17.9212 128.558 20.4036 128.19C26.8627 127.238 33.0003 128.482 38.9772 130.819C39.7928 131.14 40.5905 131.52 41.5608 131.934C41.7692 132.034 41.9537 132.151 42.1561 132.25C44.2516 133.255 46.2757 134.318 48.2223 135.463C48.3414 135.533 48.4545 135.603 48.5676 135.667C50.6631 136.911 52.699 138.214 54.7052 139.557C54.5326 140.223 54.0444 140.013 53.717 140.042ZM70.7845 91.2617C70.4987 92.243 70.1118 93.2069 69.6534 94.1181C67.8496 97.7105 64.9564 99.568 60.7952 99.457C58.6819 99.3986 56.6519 99.0131 54.6516 98.4114C48.2223 96.478 42.2216 93.715 37.1079 89.3399C32.9884 85.8118 30.1428 81.4835 29.2677 76.1329C28.2855 70.1573 29.1784 64.5029 33.0301 59.5554C35.5423 56.331 38.9355 54.4969 43.0015 53.9419C51.7882 52.7445 58.8962 55.8287 64.5635 62.3475C66.9864 65.1338 68.6533 68.364 69.8856 71.8162C70.2547 72.926 70.5642 74.0242 70.8262 75.1106C71.2131 76.717 71.475 78.3175 71.6358 79.9297C71.7965 81.536 71.8441 83.1307 71.7906 84.7429C71.7072 86.9392 71.4036 89.1355 70.7845 91.2617ZM112.444 159.02C114.284 158.489 116.195 158.185 118.022 157.618C119.85 157.052 121.654 156.368 123.392 155.568C125.059 154.803 126.666 153.897 128.214 152.916C129.827 151.888 131.369 150.755 132.863 149.563C134.351 148.372 135.733 147.057 137.143 145.813C141.787 147.04 147.079 150.796 149.573 154.633C150.853 156.602 151.568 158.717 151.586 161.088C151.609 164.19 150.258 166.538 147.752 168.314C146.168 169.435 144.37 170.113 142.483 170.545C139.167 171.299 135.822 171.41 132.44 171.03C130.696 170.831 129 170.516 127.339 170.101C122.332 168.851 117.671 166.702 113.164 164.114C113.135 164.096 113.111 164.079 113.081 164.061C113.057 164.05 113.033 164.038 113.01 164.026C110.795 162.747 108.741 161.544 106.604 160.031C108.64 159.19 110.622 159.546 112.444 159.02ZM129.434 235.108C126.922 239.729 122.963 242.48 117.677 243.14C107.467 244.414 99.7224 240.354 94.1027 232.153C91.0428 227.69 89.501 222.661 89.1616 217.293C89.1021 216.352 89.0188 215.412 88.9414 214.465C88.9473 214.436 88.9473 214.413 88.9473 214.384C88.9473 214.343 88.9414 214.302 88.9354 214.261C89.2033 211.948 89.3641 209.828 89.7748 207.748C90.0308 206.457 90.5606 205.184 91.144 203.986C93.1264 199.915 96.9899 198.168 101.27 198.84C109.587 200.143 117.093 203.396 123.594 208.683C127.66 211.989 130.47 216.165 131.411 221.346C132.286 226.125 131.792 230.774 129.434 235.108Z" fill="#C7AC92"/>
</svg>
