<svg width="1579" height="152" viewBox="0 0 1579 152" fill="none" xmlns="http://www.w3.org/2000/svg">
<path d="M903.434 145.811C907.539 143.23 911.924 136.982 914.661 129.009C925.065 93.9013 941.503 42.8603 954.923 0H956.292C972.993 55.1375 989.975 114.372 996.553 134.181C997.922 138.486 999.57 141.934 1003.68 144.955C1006.69 147.327 1010.52 148.403 1014.08 148.623V149.479H962.854V148.623C968.888 148.195 979.836 146.471 980.66 141.078C980.94 139.574 980.66 136.774 980.116 135.258L968.344 93.4733H927.802C923.961 105.751 920.135 118.884 918.487 125.781C917.398 130.733 916.574 135.258 916.574 138.278C916.574 146.031 927.802 148.183 935.749 148.623V149.479H892.75V148.623C895.767 148.391 900.152 147.963 903.434 145.811ZM967.815 91.9692L948.641 26.4988L928.098 91.9692H967.815Z" fill="url(#paint0_linear_5247_30528)"/>
<path d="M1039.02 146.886C1043.13 144.942 1045.05 142.141 1045.05 137.409V3.43547H1036.84C1033.56 3.43547 1026.7 3.65561 1023.14 4.30371C1016.57 5.59991 1007.25 30.3623 1004.79 39.8392H1003.97V2.35938H1102.03V39.8392H1101.21C1099.02 30.3623 1089.7 5.59991 1083.14 4.30371C1079.3 3.65561 1073.56 3.43547 1069.44 3.43547H1060.95V137.397C1060.95 142.141 1062.6 144.929 1066.97 146.654C1069.98 147.73 1075.46 148.378 1079.02 148.598V149.454H1026.98V148.598C1030.27 148.39 1036.56 147.962 1039.02 146.886Z" fill="url(#paint1_linear_5247_30528)"/>
<path d="M1121.76 146.886C1125.87 145.162 1127.52 142.361 1127.52 137.629V14.8567C1127.52 10.1121 1125.6 6.88383 1121.48 5.15964C1118.74 4.08354 1114.64 3.22755 1111.08 3.00744V2.35938H1194.34V36.8188H1193.51C1189.41 23.4655 1181.18 6.01567 1173.25 4.29147C1169.41 3.42326 1163.11 3.42323 1158.18 3.42323H1143.67V72.9902H1154.9C1165.58 72.9902 1169.15 68.8937 1171.06 66.3135C1173.52 62.6572 1176.53 51.0281 1177.36 44.1313H1178.45V103.573H1177.36C1176.53 97.3246 1173.25 83.7633 1171.06 80.963C1168.87 77.9426 1165.3 74.0663 1154.9 74.0663H1143.67V133.3C1143.67 146.006 1145.59 148.378 1160.93 148.378C1171.34 148.378 1180.65 148.158 1184.49 143.425C1189.97 137.177 1199.28 115.423 1201.48 108.318H1202.57L1200.09 149.454H1111.08V148.598C1114.64 148.39 1119.01 147.962 1121.76 146.886Z" fill="url(#paint2_linear_5247_30528)"/>
<path d="M1222 146.887C1226.1 145.163 1227.75 142.363 1227.75 137.631V15.0783C1227.75 10.3337 1225.84 6.8975 1221.72 5.17331C1218.98 4.09721 1214.87 3.24122 1211.31 3.02111V2.37305H1260.61V3.02111C1257.59 3.24122 1253.49 3.87711 1249.93 4.95321C1245.54 6.45729 1243.89 9.4777 1243.89 14.2101V133.106C1243.89 146.239 1244.98 148.391 1260.87 148.391C1269.91 148.391 1278.68 147.536 1282.24 143.219C1287.71 136.762 1297.57 113.932 1300.31 106.607H1301.14L1298.12 149.468H1211.3V148.612C1214.87 148.391 1219.26 147.964 1222 146.887Z" fill="url(#paint3_linear_5247_30528)"/>
<path d="M1317.87 146.886C1321.98 145.162 1323.62 142.361 1323.62 137.629V14.8567C1323.62 10.1121 1321.71 6.88383 1317.61 5.15964C1314.87 4.08354 1310.48 3.22755 1306.92 3.00744V2.35938H1356.5V3.00744C1353.48 3.22755 1349.38 3.65556 1345.82 4.93953C1341.43 6.23574 1339.78 9.24394 1339.78 13.9885V137.617C1339.78 142.361 1341.43 145.162 1345.82 146.874C1348.55 147.95 1352.94 148.378 1356.5 148.598V149.454H1306.92V148.598C1310.48 148.39 1315.13 147.962 1317.87 146.886Z" fill="url(#paint4_linear_5247_30528)"/>
<path d="M1379.78 146.886C1383.88 145.162 1385.53 142.361 1385.53 137.629V14.8567C1385.53 10.1121 1383.62 6.88383 1379.5 5.15964C1376.76 4.08354 1372.65 3.22755 1369.09 3.00744V2.35938H1452.35V36.8188H1451.53C1447.42 23.4655 1439.2 6.01567 1431.27 4.29147C1427.43 3.42326 1421.13 3.42323 1416.2 3.42323H1401.69V72.9902H1412.92C1423.6 72.9902 1427.16 68.8937 1429.07 66.3135C1431.53 62.6572 1434.55 51.0281 1435.37 44.1313H1436.46V103.573H1435.37C1434.55 97.3246 1431.27 83.7633 1429.07 80.963C1426.88 77.9426 1423.32 74.0663 1412.92 74.0663H1401.69V133.3C1401.69 146.006 1403.6 148.378 1418.95 148.378C1429.35 148.378 1438.67 148.158 1442.51 143.425C1447.98 137.177 1457.3 115.423 1459.49 108.318H1460.58L1458.11 149.454H1369.09V148.598C1372.65 148.39 1377.04 147.962 1379.78 146.886Z" fill="url(#paint5_linear_5247_30528)"/>
<path d="M1539.19 115.007C1537.54 99.2811 1535.09 74.7266 1515.37 74.7266H1501.95V137.837C1501.95 142.569 1503.6 145.37 1507.98 147.094C1511 148.17 1515.38 148.39 1518.94 148.598V149.454H1469.37V148.598C1472.93 148.378 1477.58 147.95 1480.05 146.874C1484.16 145.15 1485.8 142.349 1485.8 137.617V14.6366C1485.8 9.892 1484.16 6.45585 1479.77 4.93953C1477.3 3.86344 1472.93 3.21532 1469.37 3.00744V2.35938H1519.22C1539.22 2.35938 1560.03 12.0564 1560.03 35.5226C1560.03 58.9888 1538.94 70.2021 1522.79 73.4304V74.0786C1537.29 74.9468 1549.08 80.9753 1552.36 96.0528C1555.1 107.902 1555.38 119.959 1557.84 130.512C1559.75 138.913 1562.77 142.79 1567.42 142.79C1572.07 142.79 1577 138.045 1577 121.683V117.159H1578.64V121.683C1578.64 141.934 1573.99 151.838 1560.29 151.838C1547.4 151.838 1541.65 142.141 1539.19 115.007ZM1541.38 38.7631C1541.38 13.1326 1531.52 3.43547 1515.63 3.43547H1501.93V73.4304H1512.89C1528.23 73.4426 1541.38 62.8896 1541.38 38.7631Z" fill="url(#paint6_linear_5247_30528)"/>
<path d="M111.46 145.645C107.337 142.617 105.685 139.152 104.307 134.826C97.7012 114.916 80.6393 55.4026 63.8509 0H62.4728C48.9873 43.0613 32.4723 94.353 22.0164 129.631C19.2603 137.638 14.8635 143.916 10.7293 146.513C7.4263 148.681 3.01864 149.111 0 149.326V150.194H43.2125V149.326C35.2284 148.896 23.9523 146.728 23.9523 138.937C23.9523 135.909 24.7726 131.36 25.8772 126.389L56.1511 26.6263L87.8031 135.918C88.35 137.432 88.6234 140.244 88.35 141.757C87.5188 147.167 76.516 148.896 70.4569 149.334V150.203H121.927V149.334C118.34 149.102 114.49 148.027 111.46 145.645Z" fill="url(#paint7_linear_5247_30528)"/>
<path d="M337.523 145.645C333.399 142.617 331.748 139.152 330.37 134.826C323.764 114.916 306.702 55.4026 289.913 0H288.535C275.05 43.0613 258.535 94.353 248.079 129.631C245.323 137.638 240.926 143.916 236.792 146.513C233.489 148.681 229.081 149.111 226.062 149.326V150.194H269.275V149.326C261.291 148.896 250.015 146.728 250.015 138.937C250.015 135.909 250.835 131.36 251.94 126.389L282.214 26.6263L313.866 135.918C314.412 137.432 314.686 140.244 314.412 141.757C313.581 147.167 302.579 148.896 296.519 149.334V150.203H347.989V149.334C344.402 149.102 340.552 148.027 337.523 145.645Z" fill="url(#paint8_linear_5247_30528)"/>
<path d="M492.889 147.589C497.013 145.646 498.949 142.825 498.949 138.069V3.46663H490.691C487.388 3.46663 480.509 3.68162 476.932 4.33523C470.326 5.63387 460.975 30.5229 458.492 40.0434H457.672V2.3916H556.193V40.0434H555.362C553.164 30.5229 543.802 5.63387 537.196 4.33523C533.346 3.69022 527.56 3.46663 523.437 3.46663H514.906V138.077C514.906 142.842 516.557 145.654 520.965 147.383C523.995 148.466 529.496 149.111 533.072 149.326V150.195H480.782V149.326C484.074 149.103 490.407 148.673 492.889 147.589Z" fill="url(#paint9_linear_5247_30528)"/>
<path d="M576.279 147.588C580.403 145.859 582.054 143.047 582.054 138.283V14.9296C582.054 10.165 580.129 6.92274 575.995 5.1941C573.239 4.11047 568.842 3.25046 565.266 3.02685V2.38184H615.084V3.02685C612.055 3.24186 607.931 3.67188 604.355 4.97051C599.947 6.26915 598.296 9.29643 598.296 14.061V138.283C598.296 143.047 599.947 145.859 604.355 147.588C607.111 148.672 611.508 149.102 615.084 149.317V150.185H565.266V149.317C568.842 149.102 573.523 148.672 576.279 147.588Z" fill="url(#paint10_linear_5247_30528)"/>
<path d="M634.89 17.098C633.785 12.7721 632.418 8.87616 628.284 5.84888C625.254 4.12024 620.858 3.25162 617.555 3.03662V2.3916H666.269V3.03662C659.389 3.68164 650.858 4.98027 650.311 10.3984C650.311 12.1271 650.585 13.6407 651.132 16.4616L680.301 121.419L704.8 33.9888C706.998 24.4684 708.65 17.3216 708.65 14.2943C708.65 7.15612 699.572 3.69022 689.663 3.0452V2.40018H729.015V3.0452C725.438 3.26021 721.862 4.55887 718.832 6.72612C714.709 9.96841 712.226 16.2466 710.028 22.9547C700.666 55.8506 690.21 94.371 682.226 121.204L674.515 151.932H672.864L634.89 17.098Z" fill="url(#paint11_linear_5247_30528)"/>
<path d="M741.943 147.588C746.067 145.859 747.718 143.047 747.718 138.283V14.9296C747.718 10.165 745.793 6.92274 741.659 5.1941C738.903 4.11047 734.78 3.25046 731.203 3.02685V2.38184H814.872V37.0063H814.052C809.928 23.59 801.671 6.06274 793.687 4.32549C789.837 3.45687 783.504 3.45686 778.55 3.45686H763.96V73.3595H775.247C785.976 73.3595 789.553 69.2486 791.488 66.6513C793.96 62.9704 796.99 51.2827 797.821 44.3595H798.926V104.088H797.821C797.001 97.8099 793.698 84.1786 791.488 81.3663C789.29 78.339 785.714 74.4431 775.247 74.4431H763.96V133.957C763.96 146.728 765.885 149.102 781.295 149.102C791.751 149.102 801.113 148.887 804.963 144.122C810.464 137.844 819.827 115.991 822.025 108.844H823.13L820.658 150.177H731.214V149.308C734.791 149.102 739.198 148.672 741.943 147.588Z" fill="url(#paint12_linear_5247_30528)"/>
<path d="M395.928 28.063C397.098 28.0888 397.919 27.6674 398.422 26.859C398.553 26.6526 398.662 26.4375 398.739 26.2139C398.914 25.7323 399.002 25.2421 399.023 24.7433C399.034 24.3821 399.023 24.0209 398.98 23.6597C398.936 23.2985 398.859 22.9373 398.75 22.5761C398.673 22.3267 398.586 22.0858 398.487 21.8364C398.137 21.0538 397.667 20.3314 396.989 19.7036C395.392 18.233 393.391 17.5363 390.919 17.8029C389.771 17.9319 388.819 18.3447 388.108 19.0672C387.025 20.1852 386.774 21.458 387.047 22.8083C387.299 24.0123 388.097 24.9927 389.257 25.7925C390.7 26.7816 392.385 27.4008 394.2 27.8394C394.758 27.9684 395.327 28.0544 395.928 28.063Z" fill="url(#paint13_linear_5247_30528)"/>
<path d="M403.859 54.0266C403.881 54.2416 403.903 54.448 403.925 54.663C404.023 55.8756 404.45 57.0109 405.314 58.0171C406.9 59.8661 409.076 60.7864 411.953 60.494C413.44 60.3477 414.556 59.7285 415.267 58.6793C415.934 57.6989 416.065 56.6497 415.825 55.5746C415.562 54.405 414.764 53.459 413.626 52.7193C411.8 51.5239 409.678 50.7929 407.337 50.5005C406.134 50.3457 405.041 50.7413 404.483 51.6615C404.319 51.9281 404.166 52.2205 404.1 52.5129C403.98 52.986 403.936 53.459 403.859 53.9836C403.859 53.9922 403.859 54.0008 403.859 54.0094C403.859 54.0094 403.859 54.018 403.859 54.0266Z" fill="url(#paint14_linear_5247_30528)"/>
<path d="M410.651 42.6478C410.662 42.6478 410.662 42.6564 410.673 42.6564C411.942 43.2413 413.255 43.7229 414.665 44.0067C415.136 44.1013 415.617 44.1701 416.098 44.2131C417.05 44.2991 417.99 44.2733 418.931 44.1013C419.467 44.0067 419.97 43.8519 420.418 43.6024C421.129 43.1982 421.501 42.6736 421.501 41.9684C421.501 41.4352 421.293 40.9536 420.932 40.515C420.232 39.6463 418.734 38.8035 417.432 38.5283C417.039 38.8121 416.645 39.1045 416.229 39.3712C415.814 39.6378 415.376 39.8958 414.917 40.128C414.479 40.3516 414.031 40.558 413.561 40.73C413.069 40.9106 412.565 41.0654 412.051 41.1944C411.537 41.3234 411.001 41.3922 410.477 41.5126C409.962 41.633 409.405 41.5556 408.836 41.7362C409.437 42.0802 410.017 42.3468 410.641 42.6392C410.641 42.6392 410.651 42.6392 410.651 42.6478Z" fill="url(#paint15_linear_5247_30528)"/>
<path d="M397.948 79.2076C419.965 79.2076 444.18 65.7913 444.18 37.0063C444.18 15.5832 425.466 2.38184 402.618 2.38184H351.148V3.02685C354.725 3.24186 358.575 3.89548 361.878 4.97051C366.285 6.48415 367.937 9.95005 367.937 14.706V138.274C367.937 143.038 366.285 145.851 362.162 147.579C359.69 148.663 355.009 149.093 351.433 149.308V150.177H401.525V149.308C397.401 149.093 393.267 148.878 390.238 147.794C385.83 146.066 384.179 143.245 384.179 138.489V79.1904H397.948V79.2076ZM381.882 61.216C380.722 59.5647 380.033 57.7845 379.76 55.9096C379.574 54.611 379.618 53.321 379.749 52.0223C379.913 50.3711 380.274 48.7457 380.854 47.146C381.554 45.1766 382.571 43.3275 384.08 41.6591C384.146 41.5903 384.2 41.5128 384.277 41.401C384.113 41.3236 383.971 41.2462 383.807 41.1946C383.008 40.9022 382.254 40.541 381.575 40.0938C379.771 38.907 378.841 37.3934 378.808 35.5357C378.786 33.7125 379.552 32.1558 381.236 30.9002C382.144 30.2294 383.205 29.765 384.375 29.4553C385.382 29.1801 386.421 29.0253 387.492 28.9909C388.652 28.9565 389.8 28.9823 390.949 29.0855C391.31 29.1199 391.67 29.1027 392.031 29.0855C392.119 29.0855 392.239 28.9995 392.283 28.9307C392.359 28.8275 392.283 28.7157 392.163 28.6555C391.999 28.5695 391.824 28.4835 391.638 28.4147C391.167 28.2513 390.686 28.0965 390.205 27.9331C387.624 27.0473 385.305 25.8691 383.347 24.2694C381.171 22.4892 379.76 20.3907 379.279 17.9482C378.797 15.5316 379.082 13.1579 380.351 10.8961C381.138 9.48561 382.265 8.28159 383.818 7.32696C385.666 6.20033 387.777 5.64131 390.106 5.62411C392.874 5.59831 395.356 6.24333 397.566 7.55916C399.206 8.53959 400.42 9.78664 401.295 11.2401C402.083 12.5387 402.52 13.9061 402.75 15.3338C402.947 16.5808 402.947 17.8192 402.826 19.0663C402.64 21.1131 402.072 23.1084 401.153 25.0348C400.901 25.5508 400.65 26.0583 400.398 26.5743C400.278 26.8237 400.158 27.0731 400.07 27.3311C399.873 27.9589 400.136 28.4061 400.858 28.7071C401.426 28.9479 402.05 29.0425 402.673 29.1199C404.467 29.3177 406.282 29.3779 408.087 29.3177C410.307 29.2403 412.495 28.9737 414.595 28.3631C416.552 27.7869 418.313 26.9785 419.735 25.7572C420.446 25.1466 421.015 24.4672 421.343 23.676C421.562 23.16 421.616 22.6354 421.463 22.1021C421.354 21.6893 421.135 21.3281 420.719 21.0443C420.008 20.5627 418.762 20.5025 418.007 21.1303C417.734 21.3625 417.515 21.6377 417.274 21.8957C416.924 22.2914 416.607 22.7042 416.235 23.074C415.065 24.2264 413.512 24.7768 411.642 24.8456C408.295 24.9746 405.134 23.1858 404.237 20.3821C403.723 18.7653 403.854 17.1656 404.631 15.6176C405.604 13.6739 407.464 12.5301 410.056 12.1431C413.042 11.7045 415.645 12.3667 417.92 13.9061C419.144 14.7404 420.129 15.738 420.905 16.856C422.076 18.5073 422.797 20.2703 423.093 22.1452C423.202 22.8504 423.29 23.5642 423.301 24.2694C423.311 25.0176 423.268 25.7659 423.18 26.5055C423.049 27.4945 422.896 28.4835 422.666 29.4639C422.196 31.485 421.43 33.4286 420.249 35.2691C419.834 35.9227 419.363 36.5505 418.827 37.1439C418.729 37.2557 418.63 37.3761 418.521 37.5137C418.773 37.6084 419.002 37.6857 419.221 37.7717C420.227 38.1502 421.157 38.6146 421.955 39.2338C423.257 40.2572 423.99 41.4784 424.088 42.9319C424.165 44.0413 423.946 45.0905 423.301 46.0882C422.437 47.4298 421.048 48.3414 419.319 48.9348C418.062 49.3649 416.738 49.5885 415.371 49.6143C414.31 49.6315 413.249 49.6487 412.188 49.5283C411.871 49.4939 411.554 49.5025 411.237 49.4939C411.149 49.4939 411.051 49.4939 410.964 49.5025C410.799 49.5111 410.646 49.5454 410.603 49.7002C410.57 49.8551 410.701 49.9239 410.843 49.9927C410.996 50.0615 411.16 50.1303 411.324 50.1905C411.696 50.3195 412.068 50.4485 412.451 50.5689C414.474 51.2139 416.355 52.0653 418.051 53.1489C419.855 54.31 421.354 55.6774 422.371 57.3459C423.333 58.9111 423.793 60.5623 423.804 62.291C423.815 64.1744 423.377 65.9719 422.272 67.6489C421.08 69.4636 419.352 70.8482 416.957 71.6738C416.082 71.9748 415.174 72.1898 414.168 72.2758C413.26 72.4134 412.396 72.3876 411.532 72.336C410.362 72.2586 409.214 72.0523 408.109 71.7082C404.97 70.7106 402.772 68.9648 401.394 66.5481C400.694 65.3269 400.3 64.0282 400.125 62.6952C399.928 61.1816 399.994 59.6765 400.234 58.1715C400.573 56.1074 401.361 54.1466 402.389 52.2459C402.498 52.0309 402.618 51.8159 402.717 51.6009C402.783 51.4719 402.837 51.3343 402.87 51.1881C403.023 50.5689 402.772 50.1475 402.05 49.8723C401.765 49.7605 401.459 49.6831 401.153 49.6229C400.147 49.4164 399.097 49.3391 398.069 49.3133C396.8 49.2789 395.531 49.2616 394.273 49.3046C391.703 49.4079 389.21 49.8035 386.869 50.6807C385.425 51.2225 384.124 51.9191 383.052 52.8652C382.352 53.4844 381.794 54.1638 381.521 54.9722C381.346 55.5054 381.357 56.03 381.575 56.546C382.1 57.8533 384.211 57.9565 385.021 57.1395C385.283 56.8729 385.546 56.6062 385.775 56.3224C386.257 55.7376 386.771 55.1786 387.46 54.7228C388.378 54.1036 389.45 53.7768 390.653 53.6478C392.064 53.5016 393.409 53.6564 394.678 54.138C396.92 54.9894 398.287 56.4085 398.791 58.3263C399.119 59.5819 399.02 60.8461 398.528 62.0674C397.675 64.183 395.837 65.4817 393.081 65.9375C390.227 66.4019 387.656 65.8773 385.371 64.4755C383.872 63.581 382.757 62.4716 381.882 61.216Z" fill="url(#paint16_linear_5247_30528)"/>
<path d="M385.438 40.3439C385.591 40.2321 385.755 40.1202 385.908 39.9998C386.673 39.4236 387.527 38.9162 388.456 38.5034C390.151 37.7466 392 37.3682 393.936 37.2306C394.034 37.222 394.165 37.2736 394.209 37.1188C393.64 36.8178 393.072 36.5254 392.481 36.2415C392.448 36.2243 392.415 36.2072 392.383 36.1986C391.836 35.9405 391.267 35.6997 390.676 35.4761C390.622 35.4503 390.567 35.4245 390.512 35.4073C390.239 35.3127 390.009 35.2267 389.78 35.1579C388.095 34.6333 386.367 34.3495 384.552 34.5645C383.852 34.6505 383.185 34.7967 382.594 35.1149C381.817 35.5363 381.38 36.1039 381.391 36.8608C381.402 37.4112 381.61 37.91 381.992 38.3658C382.78 39.3118 383.906 39.9053 385.197 40.3353C385.263 40.3353 385.328 40.3353 385.438 40.3439Z" fill="url(#paint17_linear_5247_30528)"/>
<path d="M134.837 147.588C139.518 145.859 140.896 142.823 140.896 138.068V14.9296C140.896 10.165 138.971 6.92274 134.837 5.1941C130.987 3.68046 127.411 3.25046 123.55 3.02685V2.38184H170.886C198.13 2.38184 226.753 17.9654 226.753 77.264C226.753 127.687 203.358 150.194 168.403 150.194H123.539V149.325C127.411 149.325 132.365 148.457 134.837 147.588ZM208.324 77.0404C208.324 33.5404 197.594 3.45686 167.036 3.45686H157.127V135.032C157.674 145.421 159.883 149.102 170.612 149.102C200.339 149.102 208.324 118.373 208.324 77.0404Z" fill="url(#paint18_linear_5247_30528)"/>
<defs>
<linearGradient id="paint0_linear_5247_30528" x1="953.415" y1="0" x2="953.415" y2="149.479" gradientUnits="userSpaceOnUse">
<stop stop-color="white"/>
<stop offset="1" stop-color="#132A13"/>
</linearGradient>
<linearGradient id="paint1_linear_5247_30528" x1="1053" y1="2.35938" x2="1053" y2="149.454" gradientUnits="userSpaceOnUse">
<stop stop-color="white"/>
<stop offset="1" stop-color="#132A13"/>
</linearGradient>
<linearGradient id="paint2_linear_5247_30528" x1="1156.82" y1="2.35938" x2="1156.82" y2="149.454" gradientUnits="userSpaceOnUse">
<stop stop-color="white"/>
<stop offset="1" stop-color="#132A13"/>
</linearGradient>
<linearGradient id="paint3_linear_5247_30528" x1="1256.22" y1="2.37305" x2="1256.22" y2="149.468" gradientUnits="userSpaceOnUse">
<stop stop-color="white"/>
<stop offset="1" stop-color="#132A13"/>
</linearGradient>
<linearGradient id="paint4_linear_5247_30528" x1="1331.71" y1="2.35938" x2="1331.71" y2="149.454" gradientUnits="userSpaceOnUse">
<stop stop-color="white"/>
<stop offset="1" stop-color="#132A13"/>
</linearGradient>
<linearGradient id="paint5_linear_5247_30528" x1="1414.84" y1="2.35938" x2="1414.84" y2="149.454" gradientUnits="userSpaceOnUse">
<stop stop-color="white"/>
<stop offset="1" stop-color="#132A13"/>
</linearGradient>
<linearGradient id="paint6_linear_5247_30528" x1="1524.01" y1="2.35938" x2="1524.01" y2="151.838" gradientUnits="userSpaceOnUse">
<stop stop-color="white"/>
<stop offset="1" stop-color="#132A13"/>
</linearGradient>
<linearGradient id="paint7_linear_5247_30528" x1="60.9634" y1="0" x2="60.9634" y2="150.203" gradientUnits="userSpaceOnUse">
<stop stop-color="white"/>
<stop offset="1" stop-color="#132A13"/>
</linearGradient>
<linearGradient id="paint8_linear_5247_30528" x1="287.026" y1="0" x2="287.026" y2="150.203" gradientUnits="userSpaceOnUse">
<stop stop-color="white"/>
<stop offset="1" stop-color="#132A13"/>
</linearGradient>
<linearGradient id="paint9_linear_5247_30528" x1="506.933" y1="2.3916" x2="506.933" y2="150.195" gradientUnits="userSpaceOnUse">
<stop stop-color="white"/>
<stop offset="1" stop-color="#132A13"/>
</linearGradient>
<linearGradient id="paint10_linear_5247_30528" x1="590.175" y1="2.38184" x2="590.175" y2="150.185" gradientUnits="userSpaceOnUse">
<stop stop-color="white"/>
<stop offset="1" stop-color="#132A13"/>
</linearGradient>
<linearGradient id="paint11_linear_5247_30528" x1="673.285" y1="2.3916" x2="673.285" y2="151.932" gradientUnits="userSpaceOnUse">
<stop stop-color="white"/>
<stop offset="1" stop-color="#132A13"/>
</linearGradient>
<linearGradient id="paint12_linear_5247_30528" x1="777.166" y1="2.38184" x2="777.166" y2="150.177" gradientUnits="userSpaceOnUse">
<stop stop-color="white"/>
<stop offset="1" stop-color="#132A13"/>
</linearGradient>
<linearGradient id="paint13_linear_5247_30528" x1="392.986" y1="17.7471" x2="392.986" y2="28.0641" gradientUnits="userSpaceOnUse">
<stop stop-color="white"/>
<stop offset="1" stop-color="#132A13"/>
</linearGradient>
<linearGradient id="paint14_linear_5247_30528" x1="409.898" y1="50.4678" x2="409.898" y2="60.5473" gradientUnits="userSpaceOnUse">
<stop stop-color="white"/>
<stop offset="1" stop-color="#132A13"/>
</linearGradient>
<linearGradient id="paint15_linear_5247_30528" x1="415.169" y1="38.5283" x2="415.169" y2="44.2609" gradientUnits="userSpaceOnUse">
<stop stop-color="white"/>
<stop offset="1" stop-color="#132A13"/>
</linearGradient>
<linearGradient id="paint16_linear_5247_30528" x1="397.664" y1="2.38184" x2="397.664" y2="150.177" gradientUnits="userSpaceOnUse">
<stop stop-color="white"/>
<stop offset="1" stop-color="#132A13"/>
</linearGradient>
<linearGradient id="paint17_linear_5247_30528" x1="387.8" y1="34.4922" x2="387.8" y2="40.3439" gradientUnits="userSpaceOnUse">
<stop stop-color="white"/>
<stop offset="1" stop-color="#132A13"/>
</linearGradient>
<linearGradient id="paint18_linear_5247_30528" x1="175.146" y1="2.38184" x2="175.146" y2="150.194" gradientUnits="userSpaceOnUse">
<stop stop-color="white"/>
<stop offset="1" stop-color="#132A13"/>
</linearGradient>
</defs>
</svg>
